<?xml version="1.0" encoding="UTF-8"?>
<svg width="700pt" height="234pt" version="1.1" viewBox="0 0 700 234" xmlns="http://www.w3.org/2000/svg"><path transform="scale(.75)" d="m143.32 70.563c-2.1067 12.613-4.389 25.436-6.6557 38.023 15.453 0 30.92-0.0133 46.373 0 0.53334-3.2267 1.1067-6.439 1.6934-9.6523-11.693 0.02667-23.386-0.02599-35.066 0.02734 0.33333-1.96 0.65494-3.9068 0.98828-5.8535 11.08-0.08 22.172 0.05164 33.266-0.06836 0.44-2.64 0.88065-5.2916 1.334-7.9316h-33.135c0.33333-1.9067 0.65495-3.8277 0.98828-5.7344 11.427 0.01333 22.853-0.02599 34.279 0.02734 0.52-2.9333 1.0259-5.8678 1.5059-8.8145zm-106.91 0.023c-0.64 3.2-1.2016 6.4003-1.6816 9.627 6.1733 0.01333 12.362 3.38e-4 18.535 0.01367-1.6133 9.4533-3.28 18.907-5 28.334 3.76 0.0267 7.5196 0.027 11.293 0.0137 1.64-9.4667 3.2523-18.933 4.959-28.387 6.2133 0.05333 12.414 0.03839 18.627 0.01172 0.6-3.2 1.1737-6.3999 1.707-9.6133-16.444-0.03668-33.284-0.03681-48.439-3e-5zm102.05-0.0254c-3.7067 0-7.4144-0.0013-11.121 0.02539-0.72 3.8533-1.3987 7.7216-2.0254 11.602-8.7867 0.04-17.573 0.02505-26.359 0.01172 0.69333-3.8667 1.3851-7.7329 2.0117-11.6-3.7067-0.05333-7.4128-0.04034-11.133-0.01367-2.36 12.64-4.3998 25.348-6.7598 37.988 3.7733 0.0133 7.5473 0.0127 11.334-0.0273 0.88-5.68 1.9859-11.334 2.8926-17.014 8.8-0.06667 17.587-0.01401 26.387-0.02734-1.0533 5.68-2.0274 11.387-3.1074 17.08 3.7867 0 7.5747 9.3e-4 11.361-0.0391 1.9867-12.693 4.4929-25.293 6.5195-37.986zm325.62 41.357c-8.6733-0.011-17.19 0.41164-24.98 0.68164-26.053 1.84-55.84 10.081-69 34.881-11.64 24.827-16.387 62.187 8.1602 80.92 22.68 14.773 51.373 13.319 77.293 12.346 26.48-1.6533 57.052-9.3468 70.719-34.467 10.027-20.2 13.054-45.426 4.6406-66.666-13.39-23.72-40.812-27.662-66.832-27.695zm-179.15 4e-3c-8.4823-9e-3 -16.824 0.39567-24.508 0.65234-25.467 1.84-54.372 9.3195-68.266 32.826-12.693 24.667-17.827 62.2 5.7598 82.08 22.16 15.547 50.999 14.173 76.812 13.373 26.84-1.4933 57.975-8.7874 72.148-34.107 10.44-20.693 13.72-46.946 4.2129-68.52-14-22.54-40.713-26.278-66.16-26.305zm-148.41 3.6465c-1.0762-0.0108-2.1397-4e-3 -3.1856 0.0176-34.693 0.0133-69.387-0.013-104.08 0.0137-7 40.64-14.4 81.228-21.227 121.89 11.893 0.0133 23.798 0 35.705 0 2.5333-13.213 4.7614-26.495 7.0547-39.748 19.933-0.10666 39.88-0.0787 59.826-0.0254 1.9467 14.12 6.4665 28.12 14.84 39.773 14.52 0.0133 29.041-0.0146 43.561 0.0254-10.653-12.947-18.547-28.28-21.854-44.773 24.067-5.6267 40.919-33.24 31.666-56.84-7.1-16.088-26.163-20.175-42.307-20.338zm525.81 6e-3c-27.667 19.013-55.467 37.852-83.094 56.932 3.3467-18.96 6.5336-37.96 9.9336-56.906-12-0.0133-24-0.0267-36 0-6.9733 40.653-14.426 81.215-21.213 121.89 11.907 0.0267 23.812-0.0149 35.719 0.0117 1.8267-9.5333 3.4004-19.106 5.0938-28.666 14.707-9.9067 29.413-19.826 44.16-29.652 9.76 20.533 22.08 39.732 35.387 58.119 15.013 0.45333 30.039 0.0659 45.053 0.19922-18.827-24.8-35.733-51.079-50.066-78.732 21.413-14.373 42.84-28.761 64.24-43.188-16.413-0.0133-32.813 0.0283-49.213-0.0117zm189.52 8e-3c-24.377-5e-3 -48.753-2e-3 -73.133 0.0449-6.8933 40.653-14.293 81.226-21.227 121.88 49.52-0.0133 99.039 0.0149 148.56-0.0117 1.9067-10.347 3.5735-20.733 5.4668-31.08-37.533 0.0133-75.052-0.0149-112.57 0.0117 1.1467-6.2267 2.2658-12.453 3.4258-18.68 35.467 0 70.934-0.0393 106.4 0.0273 1.56-8.52 2.9602-17.054 4.5469-25.561-35.507-0.0267-71.001 0.0146-106.51-0.0254 1.1333-6.1733 2.1746-12.348 3.2812-18.521 36.68 0.0133 73.359 0 110.04 0 1.5467-9.3733 3.2002-18.733 4.8535-28.08-24.38 0.0133-48.756 1e-3 -73.133-4e-3zm-105.71 4e-3c-5.9967 0-11.994 7e-3 -17.994 0.0273-6.9867 40.64-14.293 81.239-21.279 121.89 11.96-0.0133 23.933 2e-3 35.893-0.0117 7.1067-40.64 14.253-81.268 21.373-121.89-6-7e-3 -11.996-0.0137-17.992-0.0137zm-468.33 25.164c10.515-0.0866 21 1.112 30.533 5.5703 15.72 10.253 11.374 34.106 3.4004 48.133-17.333 21.76-49.893 19.373-74.52 15.053-20.96-4.44-19.667-30.973-12.773-46.373 6-13.387 20.84-19.626 34.6-21.266 6.13-0.55 12.451-1.0652 18.76-1.1172zm181.63 2e-3c12.318-0.0633 24.516 1.784 33.641 10.209 9.92 17.12 4.3464 43.907-13.627 53.84-20.16 9.5733-44.347 9.3322-65.627 3.8789-18.8-6.08-16.48-30.626-10.387-45.213 5.7867-13.467 20.601-19.84 34.334-21.547 6.84-0.405 14.275-1.13 21.666-1.168zm-362.95 3.6309c12.127-0.02 24.253 0.0101 36.373 0.2168 15.24 0.46667 11.947 26.694-2.1602 26.201-25.067 0.52-50.16 0.0666-75.24 0.22656 1.6267-8.84 3.1857-17.694 4.6523-26.561 12.12 7e-3 24.248-0.064 36.375-0.084z" stroke-width="1.3333"/></svg>
